<svg version="1.1" id="svg21" width="142"
                                    height="36" viewBox="0 0 142 36"
                                    xmlns="http://www.w3.org/2000/svg">
                                    <path d="m 52.407056,21.908756 0.1777,-0.0138 c 0.3969,-0.0258 0.8948,0.0957 1.0632,0.2634 0.2232,0.2365 0.2232,0.6697 0.2232,0.9015 v 7.9641 c 0,0.1235 -0.0192,0.2127 -0.0251,0.2259 -0.0125,0.0125 -0.0938,0.0429 -0.3183,0.0429 h -3.2715 c -0.1512,0 -0.2193,-0.0159 -0.216,-0.0126 -0.0059,-0.0099 -0.0231,-0.0469 -0.0231,-0.1664 v -8.6199 c 0,-0.1413 0.0099,-0.2509 0.138,-0.3698 0.1777,-0.1565 0.6796,-0.2285 1.0712,-0.2285 h 0.1651 v -0.628 h -4.5725 v 0.6465 l 0.1823,-0.0185 c 0.2787,-0.0323 0.8228,0.0396 1.0064,0.2113 0.1625,0.1513 0.1849,0.3751 0.1849,0.595 v 8.3228 c 0,0.1241 -0.0191,0.2139 -0.0218,0.2245 -0.0158,0.0152 -0.1043,0.0442 -0.3209,0.0442 h -3.2715 c -0.1513,0 -0.2061,-0.0066 -0.216,-0.0118 -0.0059,-0.0106 -0.0224,-0.0496 -0.0224,-0.1671 v -8.1729 c 0,-0.1855 0,-0.6782 0.1855,-0.865 0.1413,-0.1321 0.7047,-0.2252 1.0956,-0.1816 l 0.1829,0.0204 v -0.6471 h -4.7527 v 0.628 h 0.3137 c 0.5666,0 0.836,0.0924 0.9582,0.3275 0.0475,0.0945 0.1921,0.3817 0.1921,2.1231 v 5.4528 c 0,0.6253 0,1.0777 -0.1611,1.2765 -0.179,0.2384 -0.7489,0.3764 -1.12,0.3381 l -0.1823,-0.0192 v 0.6472 h 16.0783 v -0.6386 l -0.1744,0.0099 c -0.9014,0.0436 -1.1002,-0.56 -1.1299,-0.6802 -0.0707,-0.2958 -0.1301,-1.2983 -0.1301,-1.7704 v -5.7374 c 0,-0.6069 0.0581,-0.9219 0.1968,-1.0856 0.2199,-0.2437 0.7436,-0.2437 0.9675,-0.2437 h 0.2701 v -0.6287 h -4.7224 v 0.6412 z" id="path1" />
                                    <path d="m 79.944656,21.044456 c -2.3912,0 -3.8401,1.355 -4.3519,1.9368 -0.9106,1.0256 -1.3716,2.2942 -1.3716,3.7708 0,0.9074 0.1968,2.6263 1.5129,3.9424 0.4841,0.4861 1.8451,1.6167 4.0158,1.6167 1.5875,0 3.1123,-0.6221 4.1821,-1.7084 0.6036,-0.6142 1.616,-1.96 1.616,-4.0746 0,-2.0419 -0.8895,-3.3131 -1.6351,-4.019 -1.3359,-1.2746 -3.0595,-1.4647 -3.9682,-1.4647 z m -3.5707,5.5881 c 0,-1.4859 0.3388,-2.7617 0.953,-3.5912 0.6392,-0.8505 1.6199,-1.3386 2.6917,-1.3386 0.727,0 1.7447,0.2239 2.4632,1.2878 0.5705,0.8433 0.9113,2.2334 0.9113,3.7172 0,0.9715 -0.1433,2.3536 -0.8235,3.4234 -0.6333,0.9952 -1.6034,1.5216 -2.8046,1.5216 -1.087,0 -1.9118,-0.459 -2.5194,-1.4027 -0.5705,-0.8915 -0.8717,-2.1416 -0.8717,-3.6175 z" id="path2" />
                                    <path d="m 97.617056,31.157356 -0.0039,-0.0033 c -0.2496,-0.2113 -0.4108,-0.6161 -0.6412,-1.1926 l -3.5535,-8.6939 h -3.1593 v 0.6287 h 0.3441 c 0.3057,0 0.7924,0.0455 1.0302,0.1142 0.2945,0.0852 0.3896,0.2028 0.3896,0.4828 0,0.2265 -0.1037,0.5672 -0.4266,1.5617 l -0.0383,0.1196 c -0.3289,1.0143 -0.4174,1.2864 -1.021,2.9525 -0.3453,0.9503 -0.7383,2.0274 -1.2441,2.9803 l -0.0317,0.0581 c -0.0588,0.107 -0.1096,0.2001 -0.1935,0.2965 -0.0614,0.0793 -0.1123,0.1116 -0.1202,0.1143 -0.0231,-0.0047 -0.0931,-0.0542 -0.1539,-0.0971 l -0.0455,-0.0324 c -0.214,-0.1697 -0.4821,-0.2595 -0.776,-0.2595 -0.3077,0 -0.5692,0.1129 -0.7786,0.3375 -0.1822,0.2001 -0.2674,0.4259 -0.2674,0.7099 0,0.3361 0.0938,0.5791 0.3024,0.7878 0.2008,0.2021 0.4101,0.2879 0.7,0.2879 0.385,0 0.7152,-0.1426 1.0375,-0.4457 0.3441,-0.3111 0.5263,-0.6201 0.704,-0.9219 0.5547,-0.9714 0.8578,-1.6648 1.4752,-3.3726 0.3164,-0.8611 0.8671,-2.4856 1.1326,-3.2662 l 0.1089,-0.3176 c 0.0251,-0.074 0.0529,-0.1559 0.0793,-0.2298 0.2067,0.4972 0.2391,0.585 0.3196,0.7997 0.041,0.1089 0.0944,0.2496 0.1876,0.4933 l 2.2591,5.6673 c 0.0687,0.1565 0.1499,0.4128 0.1506,0.4729 0,0.0653 -0.1235,0.1142 -0.2305,0.1367 -0.245,0.0554 -0.5692,0.0871 -0.8908,0.0871 h -0.1651 v 0.628 h 4.619296 v -0.628 h -0.2694 c -0.326296,0 -0.593096,-0.0442 -0.829496,-0.2562 z" id="path3" />
                                    <path d="m 111.07105,31.412756 c -0.284,0 -0.58,-0.031 -0.831,-0.2555 -0.24,-0.2167 -0.385,-0.5673 -0.604,-1.0989 l -2.701,-6.5232 -0.172,-0.4108 c -0.157,-0.3738 -0.322,-0.77 -0.441,-1.0401 -0.32,-0.7502 -0.484,-0.8921 -0.674,-0.8921 -0.202,0 -0.324,0.1994 -0.386,0.3004 -0.14,0.2787 -0.291,0.6181 -0.425,0.9536 l -2.913,7.2628 c -0.313,0.7932 -0.473,1.1115 -0.659,1.3102 -0.307,0.3481 -0.6463,0.393 -0.9071,0.393 h -0.1651 v 0.6286 h 3.7062 v -0.6187 l -0.154,-0.0099 c -0.395,-0.0251 -0.936,-0.0951 -1.162,-0.2067 -0.157,-0.0793 -0.222,-0.1704 -0.222,-0.3157 0,-0.177 0.123,-0.523 0.244,-0.84 l 0.422,-1.159 c 0.137,-0.4008 0.193,-0.5666 0.295,-0.6584 0.118,-0.1056 0.295,-0.1056 0.412,-0.1056 h 2.645 c 0.144,0 0.341,0 0.445,0.0938 0.072,0.0634 0.123,0.1882 0.177,0.3202 l 0.853,2.1681 c 0.147,0.383 0.154,0.4668 0.154,0.48 0,0.0654 -0.122,0.1143 -0.229,0.1367 -0.247,0.0549 -0.572,0.0866 -0.892,0.0866 h -0.165 v 0.6286 h 4.619 v -0.6286 h -0.27 z m -6.038,-7.6901 1.147,2.8179 c 0.021,0.0581 0.043,0.1122 0.065,0.1657 0.023,0.0581 0.046,0.1156 0.072,0.1862 l 0.028,0.0634 c 0.032,0.072 0.063,0.1394 0.089,0.2298 l 0.039,0.0978 c 0.024,0.0614 0.045,0.1129 0.052,0.1413 -0.052,0.0132 -0.156,0.0132 -0.206,0.0132 h -2.599 c -0.061,0 -0.102,-0.0013 -0.13,-0.0033 0.014,-0.0773 0.052,-0.1684 0.073,-0.2199 l 1.124,-2.874 c 0.077,-0.2199 0.143,-0.3922 0.246,-0.6181 z" id="path4" />
                                    <path d="m 75.015656,32.203556 -0.1195,0.1169 c -0.0152,0.0152 -0.3976,0.3903 -1.2495,0.3493 -0.6115,-0.0264 -1.5578,-0.2384 -2.7102,-1.7645 -1.4171,-1.8761 -2.5537,-3.2821 -3.4914,-4.0441 -0.5725,-0.4663 -1.3009,-0.6591 -1.9025,-0.7331 l 1.8054,-1.847 0.3084,-0.3243 c 0.5198,-0.5474 0.9681,-1.0203 1.4073,-1.3623 0.5521,-0.4247 1.0586,-0.6333 1.6939,-0.6994 l 0.1485,-0.0152 v -0.6128 h -4.1405 v 0.6386 l 0.1743,-0.0099 c 0.2279,-0.0185 0.5297,0.033 0.7179,0.1083 0.202,0.0832 0.2879,0.1895 0.2879,0.3553 0,0.3064 -0.4088,0.729 -0.8037,1.1385 -0.1228,0.1221 -0.241,0.2476 -0.3599,0.3737 -0.1129,0.1202 -0.2265,0.2404 -0.346,0.3599 -0.1645,0.1724 -0.3322,0.3408 -0.5,0.5092 -0.1677,0.1677 -0.3354,0.3361 -0.4979,0.5065 l -0.0469,0.0476 c -0.6319,0.6451 -0.8102,0.8135 -1.12,0.8135 h -0.3599 c -0.0541,0 -0.0779,-0.0039 -0.0766,0.002 -0.0119,-0.0218 -0.0119,-0.0911 -0.0119,-0.1208 v -3.1824 c 0,-0.2972 0.0337,-0.5692 0.0806,-0.6465 0.1618,-0.2648 1.0282,-0.2648 1.3538,-0.2648 h 0.1651 v -0.6287 h -4.8584 v 0.6287 h 0.1651 c 0.7436,0 0.9813,0.1433 1.0539,0.2252 0.1176,0.1406 0.1262,0.5032 0.1262,0.9998 v 7.5904 0.0469 c 6e-4,0.1459 0.002,0.3665 -0.0826,0.4609 -0.0264,0.0324 -0.2021,0.1935 -1.0975,0.1935 h -0.1651 v 0.6287 h 4.8584 v -0.6287 h -0.1651 c -0.418,0 -1.05,0 -1.266,-0.2278 -0.1684,-0.1916 -0.1684,-0.5594 -0.1684,-0.8024 v -3.3626 c 0,-0.0965 0.0027,-0.1579 0.0416,-0.1968 0.0251,-0.0245 0.0799,-0.0265 0.1671,-0.0265 h 0.2794 v -0.165 l 0.0554,0.1703 c 0.1044,0.004 0.2074,0.0271 0.3058,0.068 l 0.1195,0.0284 0.0073,-0.0079 c 0.5798,0.2021 1.1887,0.7654 2.1911,2.0175 0.2985,0.3718 0.49,0.6227 0.7535,0.9681 0.317,0.4154 0.7383,0.9668 1.573,2.026 0.9325,1.1834 2.2248,1.8537 3.5641,1.8537 0.0436,0 0.0878,-7e-4 0.1314,-0.002 0.9767,-0.0323 1.8504,-0.4404 2.279,-1.0652 l 0.029,-0.0422 v -0.0509 c 0,-0.0759 -0.029,-0.1063 -0.1895,-0.2727 z" id="path5" />
                                    <path d="m 51.789256,13.476456 c -0.2477,-0.208 -0.4075,-0.6082 -0.6406,-1.1913 l -3.5522,-8.6938707 h -3.1605 v 0.62934 h 0.344 c 0.3018,0 0.7879,0.04556 1.0282,0.11292 0.2952,0.08651 0.3897,0.20406 0.3897,0.48406 0,0.22849 -0.1037,0.56792 -0.4247,1.56113 l -0.0323,0.10104 c -0.3309,1.0216 -0.42,1.29632 -1.0269,2.97302 -0.3454,0.9489607 -0.737,2.0233607 -1.2442,2.9789607 l -0.0284,0.0522 c -0.0601,0.1089 -0.1116,0.2034 -0.1981,0.3018 -0.0535,0.0706 -0.1063,0.1096 -0.1195,0.1135 -0.0238,-0.0046 -0.0971,-0.0567 -0.1625,-0.1023 l -0.0369,-0.0258 c -0.214,-0.1697 -0.4821,-0.2595 -0.7753,-0.2595 -0.3071,0 -0.5686,0.1129 -0.7786,0.3375 -0.1823,0.1987 -0.2675,0.4246 -0.2675,0.7099 0,0.3368 0.0932,0.5798 0.3018,0.7871 0.2021,0.2028 0.4115,0.2893 0.7,0.2893 0.5039,0 0.8341,-0.2562 1.0362,-0.4464 0.3222,-0.2919 0.4953,-0.566 0.7053,-0.9226 0.5533,-0.9681 0.8571,-1.6622 1.4766,-3.3718707 0.3084,-0.84264 0.834,-2.38727 1.116,-3.21736 l 0.1169,-0.3434 c 0.0277,-0.08188 0.0574,-0.17301 0.0865,-0.25292 0.204,0.49 0.2384,0.58245 0.317,0.79113 0.0416,0.11028 0.0944,0.25227 0.1915,0.50255 l 2.2585,5.6686707 c 0.0667,0.1493 0.1492,0.4081 0.1499,0.4709 0,0.0779 -0.1757,0.1248 -0.2298,0.1373 -0.2457,0.0542 -0.5699,0.0852 -0.8902,0.0852 h -0.1651 v 0.6287 h 4.6193 v -0.6287 h -0.2694 c -0.2635,7e-4 -0.5679,-0.0198 -0.8347,-0.2602 z" id="path6" />
                                    <path d="m 58.039856,8.1710653 -0.0027,-0.00198 c -0.6194,-0.48868 -1.3524,-0.73698 -2.1792,-0.73698 -0.8651,0 -1.6351,0.27934 -2.2896,0.83273 -0.5639,0.48868 -1.2368,1.36897 -1.2368,2.7848207 0,1.3637 0.6055,2.2004 1.1147,2.6626 0.6207,0.5534 1.3914,0.8341 2.2915,0.8341 0.8512,0 1.579,-0.247 2.2274,-0.7561 0.4854,-0.3976 1.2997,-1.303 1.2997,-2.9057 6e-4,-1.4099007 -0.6664,-2.2538707 -1.225,-2.7134907 z m -3.9293,2.9822907 c 0,-0.77993 0.1275,-1.7962507 0.4128,-2.3093707 0.13,-0.23509 0.5184,-0.78254 1.3194,-0.78254 0.5197,0 0.9133,0.22915 1.2045,0.7 0.3883,0.62339 0.4385,1.4944297 0.4385,2.1832107 0,1.048 -0.1479,1.7969 -0.453,2.2889 l -7e-4,0.0013 c -0.2919,0.4781 -0.6788,0.6822 -1.2936,0.6822 -0.6215,0 -0.9979,-0.2107 -1.2587,-0.7067 -0.2318,-0.4239 -0.3692,-1.1926 -0.3692,-2.057 z" id="path7" />
                                    <path d="m 67.982256,13.385356 c -0.0706,-0.1202 -0.1558,-0.3639 -0.1842,-1.1907 l -0.0462,-1.69977 c 0,-0.11226 -0.0066,-0.402831 -0.0132,-0.7145307 -0.008,-0.35264 -0.0159,-0.73169 -0.0159,-0.89877 0,-0.30575 0.0119,-0.49858 0.2476,-0.61217 0.1209,-0.05547 0.358,-0.08849 0.634,-0.08849 h 0.1651 v -0.63066 h -1.9441 c -0.1407,0 -0.3765,0 -0.5383,0.1433 -0.1261,0.10434 -0.1901,0.26812 -0.3942,0.81887 -0.0561,0.15321 -0.1189,0.30113 -0.2232,0.54679 -0.1169,0.27472 -0.2846,0.67028 -0.5514,1.3280207 -0.2615,0.63731 -0.5039,1.20981 -0.77,1.81801 l -1.614,-3.8493307 c -0.179,-0.43585 -0.2311,-0.54349 -0.3203,-0.65179 -0.1353,-0.13538 -0.278,-0.15321 -0.3988,-0.15321 h -2.2711 v 0.63066 h 0.1651 c 0.3712,0 0.6749,0.0601 0.8123,0.16047 0.1756,0.12944 0.2608,0.38434 0.2608,0.77991 0,0.23509 -0.0145,0.60887 -0.0284,0.80764 l -0.1637,2.0029507 c -0.0562,0.7132 -0.1374,1.1101 -0.2807,1.3716 -0.1598,0.3038 -0.4107,0.4332 -0.84,0.4332 h -0.1651 v 0.6287 h 3.0041 v -0.6399 l -0.1757,0.0118 c -0.2186,0.0113 -0.4874,-0.0356 -0.6016,-0.1083 -0.2252,-0.1466 -0.2542,-0.4741 -0.2542,-0.7429 0,-0.3599 0.0244,-0.7125 0.068,-1.3531 l 0.1327,-2.1574507 1.3056,3.1995507 c 0.2172,0.5223 0.3467,0.8162 0.4365,1.0196 0.0931,0.212 0.142,0.3223 0.2126,0.521 0.0396,0.1017 0.1321,0.3408 0.3547,0.3408 0.097,0 0.2793,-0.0555 0.4081,-0.422 l 0.0898,-0.241 c 0.1116,-0.3005 0.1935,-0.5204 0.5672,-1.4595 0.4471,-1.1239 0.4828,-1.2058 0.8255,-1.99232 0.103,-0.237071 0.2338,-0.5375407 0.4121,-0.9496207 l 0.0588,2.3086407 c 0.0191,0.7119 0.0284,1.0712 0.0284,1.4397 0,0.2549 0,0.3605 -0.2338,0.4781 -0.1876,0.0878 -0.4656,0.1188 -0.6624,0.1188 h -0.1651 v 0.6287 h 3.6328 v -0.6419 l -0.1777,0.0139 c -0.3407,0.0218 -0.6419,-0.1103 -0.7885,-0.3533 z" id="path8" />
                                    <path d="m 74.922956,8.1697453 c -0.6188,-0.48934 -1.3518,-0.73764 -2.1799,-0.73764 -0.8671,0 -1.6371,0.27934 -2.2895,0.83207 -0.5647,0.49 -1.2383,1.37095 -1.2383,2.7854807 0,1.363 0.6063,2.2004 1.1161,2.6633 0.6207,0.5534 1.3914,0.8341 2.2915,0.8341 0.8519,0 1.5796,-0.2464 2.2235,-0.7542 l 0.0026,-0.002 c 0.4861,-0.3969 1.3016,-1.3022 1.3016,-2.9063 7e-4,-1.4092407 -0.6656,-2.2532107 -1.2276,-2.7148107 z m -3.5581,5.0406107 c -0.2312,-0.4233 -0.3692,-1.1926 -0.3692,-2.057 0,-0.77993 0.1275,-1.7962507 0.4128,-2.3093707 0.1618,-0.29254 0.5481,-0.7832 1.3201,-0.7832 0.517,0 0.9113,0.22915 1.2045,0.7 0.3883,0.62736 0.4378,1.4964097 0.4378,2.1831707 0,1.0474 -0.1479,1.7969 -0.4523,2.2902 -0.2952,0.4795 -0.6822,0.6835 -1.2957,0.6835 -0.6142,0 -1.0018,-0.2173 -1.2574,-0.704 z" id="path9" />
                                    <path d="m 81.065756,8.1807553 h 0.1651 c 0.2833,0 0.638,0.05613 0.7397,0.1499 0.1241,0.11491 0.1406,0.33283 0.1406,0.55142 v 1.4647207 c 0,0.09311 -0.033,0.12943 -0.0409,0.13736 -0.0264,0.02641 -0.0852,0.02641 -0.1374,0.02641 h -2.5702 c -0.0297,0 -0.0918,0 -0.1083,-0.01387 -0.0211,-0.02113 -0.0403,-0.03962 -0.0403,-0.09113 V 8.7480153 c 0,-0.20273 0.0694,-0.35462 0.14,-0.41736 0.0965,-0.08717 0.4075,-0.15056 0.741,-0.15056 h 0.1651 v -0.62934 h -3.677 v 0.63858 l 0.1743,-0.00924 c 0.2589,-0.0251 0.6333,0.08849 0.7357,0.20141 0.1367,0.14793 0.1354,0.43519 0.1347,0.64585 v 4.0382007 c 0,0.1961 -0.0139,0.3989 -0.173,0.5257 -0.1347,0.1004 -0.4768,0.1591 -0.696,0.1466 l -0.1764,-0.0119 v 0.6399 h 3.677 v -0.6393 l -0.1756,0.0106 c -0.2365,0.0172 -0.5898,-0.0462 -0.7198,-0.1539 -0.1513,-0.13 -0.1513,-0.2892 -0.1513,-0.4279 v -1.8358 c 0,-0.0746 0.0139,-0.0865 0.0291,-0.0971 0.0185,-0.0145 0.0687,-0.0225 0.1492,-0.0225 h 2.5702 c 0.068,0 0.1129,0.0185 0.1228,0.0265 0.0232,0.0231 0.0258,0.0369 0.0258,0.1221 v 1.8233 c 0,0.2021 -0.0687,0.3533 -0.1393,0.4147 -0.0965,0.0879 -0.4088,0.1513 -0.741,0.1513 h -0.1651 v 0.6287 h 3.6763 v -0.6287 h -0.2245 c -0.1704,0 -0.5243,0 -0.6808,-0.1816 -0.1308,-0.1539 -0.1414,-0.523 -0.1414,-1.0276 V 8.8979253 c 0,-0.20406 0,-0.43519 0.1414,-0.56595 0.1043,-0.09443 0.4576,-0.15056 0.7402,-0.15056 h 0.1651 v -0.62934 h -3.6763 v 0.62868 z" id="path10" />
                                    <path d="m 90.882256,8.1697453 c -0.6188,-0.48934 -1.3518,-0.73764 -2.1799,-0.73764 -0.8658,0 -1.6358,0.27934 -2.2902,0.83207 -0.564,0.49066 -1.2369,1.37293 -1.2369,2.7854807 0,1.361 0.6069,2.1991 1.1167,2.6633 0.6214,0.5534 1.3921,0.8341 2.2909,0.8341 0.8413,0 1.5895,-0.2536 2.2235,-0.7542 l 0.0019,-0.002 c 0.4861,-0.3969 1.3023,-1.3022 1.3023,-2.9063 0,-1.4099007 -0.667,-2.2538707 -1.2283,-2.7148107 z m -3.5588,5.0413107 c -0.2304,-0.4253 -0.3678,-1.1946 -0.3678,-2.0577 0,-0.77993 0.1274,-1.7962507 0.4134,-2.3093707 0.1611,-0.29254 0.5474,-0.7832 1.3188,-0.7832 0.5184,0 0.9126,0.22915 1.2045,0.7 0.389,0.62669 0.4385,1.4964097 0.4385,2.1831707 0,1.0494 -0.1486,1.7982 -0.4544,2.2909 -0.2925,0.4788 -0.6795,0.6828 -1.2943,0.6828 -0.6208,0 -0.9972,-0.2106 -1.2587,-0.7046 z" id="path11" />
                                    <path d="m 98.617052,12.468056 c -0.241,0.2939 -0.492596,0.4993 -0.591696,0.566 l -0.004,0.0026 c -0.3599,0.2575 -0.7851,0.3876 -1.2639,0.3876 -0.5818,0 -1.0943,-0.2245 -1.5248,-0.6676 -0.5046,-0.5197 -0.7595,-1.2098 -0.7595,-2.05179 0,-0.518401 0.1017,-1.2824607 0.5924,-1.9910407 0.4055,-0.52962 0.8406,-0.60821 1.0645,-0.60821 0.1975,0 0.3566,0.06736 0.4722,0.19679 0.0746,0.08651 0.1446,0.22519 0.247,0.42859 0.0878,0.17632 0.2205,0.44245 0.4418,0.64717 0.0911,0.0799 0.3414,0.26613 0.7066,0.26613 0.2648,0 0.489996,-0.10368 0.656996,-0.3084 0.105,-0.1466 0.1658,-0.33415 0.1658,-0.51509 0,-0.18293 -0.0647,-0.64783 -0.665696,-1.0084 -0.2469,-0.14264 -0.7805,-0.38104 -1.5776,-0.38104 -1.0044,0 -1.9468,0.3718 -2.6527,1.0467 -0.9688,0.91661 -1.1134,2.0504707 -1.1134,2.6447907 0,0.9047 0.315,1.7778 0.8657,2.3979 0.35,0.383 1.1299,1.0255 2.4223,1.0255 0.8426,0 1.5816,-0.2542 2.1964,-0.7568 0.434496,-0.3586 0.698696,-0.7772 0.826096,-0.9793 l 0.0892,-0.14 -0.5026,-0.3157 z" id="path12" />
                                    <path d="m 105.02105,8.1690853 c -0.619,-0.48868 -1.352,-0.73698 -2.18,-0.73698 -0.865,0 -1.635,0.27934 -2.2893,0.83273 -0.563898,0.48868 -1.236798,1.36897 -1.236798,2.7848207 0,1.4376 0.697998,2.2849 1.114698,2.6626 0.6204,0.5534 1.3914,0.8341 2.2904,0.8341 0.854,0 1.581,-0.247 2.228,-0.7561 0.485,-0.3969 1.301,-1.3016 1.301,-2.9057 0,-1.4092407 -0.667,-2.2538707 -1.228,-2.7154707 z m -3.928,2.9842707 c 0,-0.77927 0.127,-1.7955907 0.413,-2.3093707 0.13,-0.23509 0.518,-0.78254 1.32,-0.78254 0.518,0 0.913,0.22915 1.205,0.69868 0.387,0.62802 0.437,1.4977297 0.437,2.1845307 0,1.05 -0.149,1.7989 -0.454,2.2902 -0.292,0.4781 -0.679,0.6822 -1.294,0.6822 -0.62,0 -0.997,-0.2107 -1.258,-0.706 -0.231,-0.4259 -0.369,-1.1946 -0.369,-2.0577 z" id="path13" />
                                    <path d="m 112.79105,11.157756 c -0.255,-0.2008 -0.6,-0.3487 -0.947,-0.44511 0.219,-0.07991 0.415,-0.18293 0.585,-0.30906 0.417,-0.309051 0.62,-0.7085807 0.62,-1.2236807 0,-0.47745 -0.192,-0.87236 -0.571,-1.17547 -0.563,-0.44575 -1.377,-0.48273 -2.163,-0.48273 -0.375,0 -0.738,0.01386 -1.099,0.02773 l -0.043,0.00132 c -0.742,0.02972 -0.891,0.02972 -1.01,0.02972 -0.238,0 -0.549,0 -1.443,-0.02972 l -0.171,-0.00594 v 0.67821 l 0.178,-0.01387 c 0.257,-0.01651 0.694,0.02443 0.857,0.17632 0.157,0.15783 0.176,0.4266 0.176,0.61547 v 3.6605107 c 0,0.2714 -0.035,0.6346 -0.091,0.7719 -0.117,0.2708 -0.397,0.2866 -0.7,0.2893 h -0.42 v 0.6373 l 0.159,0.0059 c 0.415,0.0152 1.307,0.0304 1.799,0.0304 0.355,0 0.698,0 1.061,0.0145 0.14,0 0.28,0.004 0.42,0.0073 0.144,0.0039 0.288,0.0079 0.431,0.0079 0.98,0 1.659,-0.1413 2.134,-0.4431 0.743,-0.455 0.854,-1.1715 0.854,-1.5585 0,-0.5224 -0.207,-0.9483 -0.616,-1.2666 z m -3.447,1.7883 v -1.7487 c 0,-0.0475 0.007,-0.0581 0.002,-0.0581 0,0 -0.001,0 -0.001,0 0.002,-0.0013 0.071,-0.0304 0.342,-0.0304 h 0.284 c 0.556,0 0.974,0.0826 1.245,0.2457 0.373,0.2199 0.548,0.5639 0.548,1.083 0,0.4193 -0.104,0.7053 -0.337,0.9258 -0.285,0.2682 -0.709,0.4042 -1.262,0.4042 -0.414,0 -0.62,-0.0601 -0.712,-0.208 -0.042,-0.0634 -0.109,-0.2272 -0.109,-0.6135 z m 2.12,-3.7509607 c 0,0.38236 -0.151,0.73764 -0.404,0.9496297 -0.253,0.210661 -0.659,0.336791 -1.089,0.336791 h -0.433 c -0.075,0 -0.177,0 -0.189,0.0013 -0.004,-0.01057 -0.004,-0.04161 -0.004,-0.06142 V 8.8675453 c 0,-0.23575 0.021,-0.48141 0.035,-0.62735 0,-6.7e-4 0,-6.6e-4 0,-0.00132 0.264,-0.05878 0.523,-0.08849 0.772,-0.08849 0.306,0 0.631,0.02047 0.945,0.26481 0.247,0.18953 0.367,0.44443 0.367,0.7799 z" id="path14" />
                                    <path d="m 119.88405,12.468056 c -0.24,0.2939 -0.492,0.4993 -0.591,0.566 l -0.004,0.0026 c -0.36,0.2575 -0.785,0.3876 -1.264,0.3876 -0.583,0 -1.095,-0.2245 -1.525,-0.6676 -0.505,-0.5197 -0.76,-1.2105 -0.76,-2.05179 0,-0.519721 0.101,-1.2851007 0.593,-1.9910407 0.405,-0.52962 0.84,-0.60821 1.064,-0.60821 0.198,0 0.357,0.06736 0.472,0.19679 0.075,0.08651 0.145,0.22519 0.247,0.42793 0.08,0.16377 0.215,0.43849 0.442,0.64783 0.091,0.0799 0.341,0.26613 0.707,0.26613 0.264,0 0.489,-0.10368 0.657,-0.30906 0.105,-0.14792 0.166,-0.33481 0.166,-0.51443 0,-0.18293 -0.065,-0.64783 -0.666,-1.00774 -0.197,-0.1149 -0.744,-0.3817 -1.578,-0.3817 -1.005,0 -1.948,0.3718 -2.653,1.0467 -0.969,0.91793 -1.113,2.0504707 -1.113,2.6447907 0,0.9034 0.315,1.7764 0.865,2.3979 0.351,0.383 1.132,1.0255 2.423,1.0255 0.845,0 1.583,-0.2542 2.197,-0.7568 0.434,-0.3599 0.699,-0.7786 0.826,-0.9793 l 0.089,-0.14 -0.503,-0.3157 z" id="path15" />
                                    <path d="m 140.24005,8.3308753 c 0.102,-0.09443 0.456,-0.15057 0.739,-0.15057 h 0.165 v -0.62934 h -0.613 c -0.595,0 -0.89,-0.01386 -1.288,-0.04358 l -0.003,-6.6e-4 c -0.155,-0.00859 -0.306,-0.01915 -0.453,-0.02972 -0.334,-0.02311 -0.649,-0.0449 -0.976,-0.0449 -1.092,0 -1.666,0.2166 -1.954,0.3982 -0.555,0.34142 -0.886,0.98001 -0.886,1.70972 0,0.5659497 0.23,1.0354707 0.663,1.3564307 0.219,0.1671 0.53,0.2945 0.835,0.3777 -0.417,0.2239 -0.865,0.63 -1.158,1.262 -0.048,0.1043 -0.096,0.2225 -0.148,0.3467 -0.226,0.5547 -0.509,1.2455 -1.047,1.2455 -0.478,0 -0.784,-0.4431 -0.819,-1.1781 V 9.4647453 c 0,-0.31368 -0.038,-1.08764 -0.378,-1.50434 -0.26,-0.33547 -0.759,-0.52764 -1.371,-0.52764 -0.765,0 -1.577,0.31236 -2.411,0.92651 -0.569,0.40547 -0.846,0.80698 -0.846,1.22632 0,0.22981 0.079,0.4292397 0.227,0.5771697 0.132,0.13406 0.293,0.199431 0.491,0.199431 0.244,0 0.474,-0.101701 0.631,-0.278681 0.135,-0.1512197 0.207,-0.3493397 0.207,-0.5725497 0,-0.09047 -0.012,-0.16641 -0.032,-0.28066 -0.005,-0.03169 -0.013,-0.06537 -0.019,-0.09839 -0.012,-0.05745 -0.024,-0.11557 -0.024,-0.15915 0,-0.06868 0.022,-0.3051 0.314,-0.47415 0.161,-0.10434 0.408,-0.16906 0.643,-0.16906 0.434,0 0.663,0.21132 0.739,0.29849 0.163,0.20142 0.245,0.45698 0.245,0.76208 v 1.1523507 l -0.621,0.21595 c -1.058,0.37313 -1.664,0.66233 -2.095,0.99853 -0.335,0.2694 -0.72,0.6683 -0.72,1.3689 0,0.4002 0.144,0.7654 0.407,1.0282 0.179,0.179 0.511,0.3923 1.073,0.3923 0.216,0 0.677,-0.0429 1.336,-0.3282 0.176,-0.0773 0.447,-0.2074 0.697,-0.3454 0.368,0.7568 1.376,0.8598 2.318,0.8598 1.115,0 1.928,-0.3619 2.352,-1.0467 0.226,-0.3632 0.404,-0.7654 0.563,-1.12 0.187,-0.4233 0.366,-0.8221 0.555,-0.9886 0.213,-0.1875 0.559,-0.2648 0.937,-0.2232 v 1.8167 c 0,0.2021 -0.068,0.3533 -0.139,0.4147 -0.098,0.0879 -0.41,0.1513 -0.742,0.1513 h -0.165 v 0.6286 h 3.677 v -0.6286 h -0.225 c -0.26,0 -0.543,-0.0218 -0.681,-0.1816 -0.13,-0.1526 -0.14,-0.5224 -0.14,-1.0276 V 8.8968253 c -0.002,-0.20406 -0.002,-0.43586 0.14,-0.56595 z m -3.728,1.14906 c 0,-0.6683 0.296,-0.99057 0.473,-1.12463 0.223,-0.17037 0.564,-0.26349 0.962,-0.26349 0.212,0 0.392,0.02312 0.566,0.07331 v 2.2406507 c 0,0.12019 -0.02,0.20605 -0.056,0.24237 -0.021,0.02113 -0.11,0.07065 -0.481,0.07065 -0.388,0 -0.824,-0.03566 -1.11,-0.29584 -0.234,-0.232461 -0.354,-0.5501007 -0.354,-0.9430207 z m -6.557,3.9464207 c -0.085,-0.1327 -0.139,-0.3559 -0.139,-0.5693 0,-0.49 0.219,-0.8333 0.713,-1.114 0.328,-0.2001 0.805,-0.3665 1.183,-0.4676 v 1.4773 c 0,0.1453 -0.018,0.2859 -0.046,0.35 -0.05,0.1109 -0.14,0.1625 -0.244,0.2232 -0.297,0.1704 -0.616,0.3361 -0.949,0.3361 -0.244,0 -0.418,-0.0792 -0.518,-0.2357 z" id="path16" />
                                    <path d="m 128.90005,14.634856 c -0.041,0.0535 -0.097,0.0984 -0.167,0.1334 -0.064,0.0317 -0.173,0.0582 -0.241,0.0582 -0.327,0 -0.768,-0.5554 -0.935,-0.7648 -0.261,-0.3249 -0.516,-0.7673 -0.741,-1.1569 -0.131,-0.2259 -0.253,-0.4365 -0.365,-0.6069 -0.277,-0.4233 -0.616,-0.778 -1.034,-1.0844 -0.258,-0.1875 -0.729,-0.4015 -1.197,-0.50251 0.246,-0.27934 0.492,-0.659721 0.655,-0.9522707 0.247,-0.44377 0.35,-0.62669 0.557,-0.92584 0.067,-0.09906 0.153,-0.18557 0.171,-0.19614 0.007,0.00198 0.042,0.01783 0.125,0.14198 0.249,0.34538 0.584,0.39755 0.761,0.39755 0.432,0 0.897,-0.32028 0.897,-0.83802 0,-0.29453 -0.098,-0.53226 -0.293,-0.70528 -0.186,-0.16708 -0.41,-0.2516 -0.664,-0.2516 -0.457,0 -0.893,0.28726 -1.055,0.43518 -0.341,0.29123 -0.505,0.55076 -0.768,0.99255 -0.19,0.35594 -0.74,1.3372697 -1.003,1.6001007 -0.182,0.1816 -0.239,0.19018 -0.392,0.19018 h -0.076 l -0.005,-0.433201 0.001,-1.2969797 c 0,-0.19613 0.014,-0.39821 0.173,-0.52632 0.134,-0.09972 0.48,-0.1585 0.697,-0.14595 l 0.176,0.01189 v -0.64057 h -3.646 v 0.62934 h 0.165 c 0.219,0 0.516,0.04623 0.643,0.13736 0.172,0.11094 0.207,0.28198 0.207,0.50453 v 1.4950997 l 0.008,0.162441 -0.002,2.57018 c 0,0.1961 -0.014,0.3989 -0.173,0.525 -0.134,0.1011 -0.48,0.1605 -0.696,0.1466 l -0.177,-0.0119 v 0.6399 h 3.646 v -0.6286 h -0.165 c -0.219,0 -0.516,-0.0463 -0.643,-0.1374 -0.174,-0.1116 -0.208,-0.2754 -0.208,-0.5039 v -1.8675 h 0.164 c 0.675,0 1.441,1.295 1.768,1.8477 l 0.194,0.3322 c 0.372,0.6425 0.757,1.3062 1.28,1.7434 0.365,0.3057 0.876,0.4939 1.338,0.4939 0.007,0 0.015,0 0.022,0 0.575,-0.0085 1.032,-0.1928 1.437,-0.5804 l 0.119,-0.1129 -0.44,-0.4689 z" id="path17" />
                                    <path d="m 3.5951953,18.537656 c 1.37556,-1.3769 12.2559607,-12.2572507 12.4797607,-12.4798007 0.2233,0.22321 11.1049,11.1029007 12.4799,12.4785007 1.3894,1.3907 1.9098,2.8376 1.9098,2.8376 0,0 2.0346,-4.4384 0.0013,-6.4717 -2.0029,-2.0029 -14.0218,-14.02242095 -14.383,-14.38364765 v -0.01717 c 0,0 -0.0073,0.007264 -0.0086,0.008585 -0.0013,-0.001321 -0.0086,-0.008585 -0.0086,-0.008585 v 0.01717 C 15.705156,0.87917465 3.6856653,12.899356 1.6833993,14.902256 c -2.0339639,2.0333 0.00132,6.4717 0.00132,6.4717 0,0 0.521036,-1.4469 1.910476,-2.8363 z" id="path18" />
                                    <path d="m 25.571956,25.200056 c 2.3173,-2.3172 -0.0013,-6.7748 -0.0013,-6.7748 0,0 -0.4121,1.641 -1.9091,3.1388 -1.0864,1.087 -6.1336,6.1329 -7.8625,7.8618 -2.3153,2.3159 0.321,6.3422 0.321,6.3422 0,0 0.1584,-1.2738 1.7434,-2.8594 3.2048,-3.2068 6.3567,-6.3574 7.7085,-7.7086 z" id="path19" />
                                    <path d="m 18.879956,16.783156 c -1.087,1.0869 -6.1336,6.1329 -7.8631,7.8617 -2.3153003,2.316 0.3209,6.3423 0.3209,6.3423 0,0 0.1579,-1.2745 1.7434,-2.8601 3.2055,-3.2055 6.3568,-6.3548 7.7093,-7.7079 2.3166,-2.3173 -0.0027,-6.7742 -0.0027,-6.7742 0,0 -0.4107,1.6404 -1.9078,3.1382 z" id="path20" />
                                    <path d="m 14.100256,12.003356 c -1.0864,1.0863 -6.1342807,6.1322 -7.8631507,7.8618 -2.31462,2.3159 0.3216,6.3422 0.3216,6.3422 -0.00132,0 0.15717,-1.2745 1.74208,-2.8594 3.2061707,-3.2061 6.3567707,-6.3561 7.7092707,-7.7086 2.3166,-2.3166 -0.002,-6.7741507 -0.002,-6.7741507 0,0 -0.4108,1.6403807 -1.9078,3.1381507 z" id="path21" />
                                </svg>